<svg xmlns="http://www.w3.org/2000/svg" xmlns:xlink="http://www.w3.org/1999/xlink" width="46" zoomAndPan="magnify" viewBox="0 0 34.5 34.5" height="46" preserveAspectRatio="xMidYMid meet" version="1.0"><defs><g/><clipPath id="ac7a99e337"><path d="M 1.367188 1.070312 L 32.640625 1.070312 L 32.640625 32.953125 L 1.367188 32.953125 Z M 1.367188 1.070312 " clip-rule="nonzero"/></clipPath><clipPath id="1f5ee444ef"><path d="M 17.003906 1.070312 C 8.367188 1.070312 1.367188 8.203125 1.367188 17.003906 C 1.367188 25.800781 8.367188 32.933594 17.003906 32.933594 C 25.640625 32.933594 32.640625 25.800781 32.640625 17.003906 C 32.640625 8.203125 25.640625 1.070312 17.003906 1.070312 Z M 17.003906 1.070312 " clip-rule="nonzero"/></clipPath><clipPath id="289c80f55b"><path d="M 0.535156 0.535156 L 33.804688 0.535156 L 33.804688 33.804688 L 0.535156 33.804688 Z M 0.535156 0.535156 " clip-rule="nonzero"/></clipPath></defs><g clip-path="url(#ac7a99e337)"><g clip-path="url(#1f5ee444ef)"><path fill="#dd99bb" d="M 1.367188 1.070312 L 32.640625 1.070312 L 32.640625 32.953125 L 1.367188 32.953125 Z M 1.367188 1.070312 " fill-opacity="1" fill-rule="nonzero"/></g></g><g fill="#1f1a38" fill-opacity="1"><g transform="translate(2.690822, 20.799144)"><g><path d="M 14.375 -2.421875 C 14.3125 -2.785156 14.265625 -3.082031 14.234375 -3.3125 C 14.210938 -3.550781 14.203125 -3.796875 14.203125 -4.046875 C 14.203125 -4.296875 14.25 -4.4375 14.34375 -4.46875 C 14.351562 -4.46875 14.367188 -4.46875 14.390625 -4.46875 C 14.703125 -4.46875 15.289062 -4.6875 16.15625 -5.125 C 17.019531 -5.5625 18.003906 -6.148438 19.109375 -6.890625 C 20.210938 -7.640625 21.363281 -8.59375 22.5625 -9.75 C 23.757812 -10.90625 24.75 -12.070312 25.53125 -13.25 C 25.664062 -13.445312 25.78125 -13.546875 25.875 -13.546875 C 25.90625 -13.546875 25.9375 -13.53125 25.96875 -13.5 C 26.007812 -13.46875 26.03125 -13.414062 26.03125 -13.34375 C 26.03125 -13.269531 25.992188 -13.171875 25.921875 -13.046875 C 24.710938 -11.023438 23.003906 -9.128906 20.796875 -7.359375 C 18.585938 -5.585938 16.742188 -4.515625 15.265625 -4.140625 C 15.242188 -4.109375 15.234375 -4.039062 15.234375 -3.9375 C 15.234375 -3.832031 15.242188 -3.660156 15.265625 -3.421875 C 15.285156 -3.191406 15.390625 -2.742188 15.578125 -2.078125 C 15.765625 -1.421875 15.976562 -0.804688 16.21875 -0.234375 C 16.945312 1.421875 17.898438 2.25 19.078125 2.25 C 19.765625 2.25 20.421875 2.101562 21.046875 1.8125 C 21.671875 1.53125 22.117188 1.117188 22.390625 0.578125 C 22.453125 0.429688 22.53125 0.359375 22.625 0.359375 C 22.726562 0.359375 22.71875 0.472656 22.59375 0.703125 C 22.3125 1.285156 21.8125 1.800781 21.09375 2.25 C 20.375 2.707031 19.632812 2.9375 18.875 2.9375 C 18.125 2.9375 17.410156 2.660156 16.734375 2.109375 C 15.566406 1.148438 14.78125 -0.359375 14.375 -2.421875 Z M 16.515625 -11.515625 C 16.628906 -11.710938 16.804688 -11.957031 17.046875 -12.25 C 17.285156 -12.539062 17.492188 -12.707031 17.671875 -12.75 C 17.847656 -12.800781 18.015625 -12.828125 18.171875 -12.828125 C 18.335938 -12.828125 18.460938 -12.757812 18.546875 -12.625 C 18.640625 -12.488281 18.6875 -12.347656 18.6875 -12.203125 C 18.6875 -12.066406 18.582031 -11.910156 18.375 -11.734375 C 18.039062 -11.421875 17.503906 -11.226562 16.765625 -11.15625 C 16.160156 -10.0625 15.460938 -8.296875 14.671875 -5.859375 C 14.378906 -4.984375 13.988281 -4.046875 13.5 -3.046875 C 13.019531 -2.046875 12.503906 -1.171875 11.953125 -0.421875 C 11.398438 0.316406 10.664062 0.96875 9.75 1.53125 C 8.84375 2.101562 7.816406 2.476562 6.671875 2.65625 C 6.296875 2.707031 5.878906 2.734375 5.421875 2.734375 C 4.972656 2.734375 4.484375 2.675781 3.953125 2.5625 C 1.992188 2.113281 0.734375 1.15625 0.171875 -0.3125 C 0.00390625 -0.757812 -0.078125 -1.203125 -0.078125 -1.640625 C -0.078125 -2.085938 -0.0195312 -2.546875 0.09375 -3.015625 C 0.21875 -3.484375 0.484375 -3.898438 0.890625 -4.265625 C 1.304688 -4.640625 1.648438 -4.84375 1.921875 -4.875 C 2.054688 -4.894531 2.125 -4.863281 2.125 -4.78125 C 2.125 -4.726562 2.09375 -4.6875 2.03125 -4.65625 C 1.769531 -4.53125 1.460938 -4.25 1.109375 -3.8125 C 0.640625 -3.238281 0.40625 -2.523438 0.40625 -1.671875 C 0.40625 -0.804688 0.671875 -0.0976562 1.203125 0.453125 C 1.847656 1.128906 2.613281 1.550781 3.5 1.71875 C 4.101562 1.84375 4.601562 1.90625 5 1.90625 C 5.394531 1.90625 5.742188 1.863281 6.046875 1.78125 C 6.921875 1.570312 7.738281 1.25 8.5 0.8125 C 9.257812 0.382812 9.894531 -0.0664062 10.40625 -0.546875 C 10.925781 -1.035156 11.421875 -1.617188 11.890625 -2.296875 C 12.367188 -2.972656 12.742188 -3.566406 13.015625 -4.078125 C 13.285156 -4.585938 13.765625 -5.625 14.453125 -7.1875 C 15.148438 -8.757812 15.757812 -10.070312 16.28125 -11.125 C 16.125 -11.101562 15.664062 -11.0625 14.90625 -11 C 13.507812 -10.882812 12.425781 -10.710938 11.65625 -10.484375 C 10.195312 -10.078125 9.15625 -9.300781 8.53125 -8.15625 C 8.238281 -7.601562 8.09375 -7.0625 8.09375 -6.53125 C 8.09375 -6.257812 8.132812 -5.988281 8.21875 -5.71875 C 8.445312 -5.007812 8.910156 -4.65625 9.609375 -4.65625 C 10.484375 -4.65625 11.09375 -5.109375 11.4375 -6.015625 C 11.613281 -6.453125 11.703125 -6.8125 11.703125 -7.09375 C 11.703125 -7.382812 11.691406 -7.585938 11.671875 -7.703125 C 11.648438 -7.816406 11.664062 -7.875 11.71875 -7.875 C 11.800781 -7.851562 11.875 -7.785156 11.9375 -7.671875 C 12.03125 -7.453125 12.078125 -7.1875 12.078125 -6.875 C 12.078125 -6.570312 11.976562 -6.222656 11.78125 -5.828125 C 11.457031 -5.160156 11.007812 -4.71875 10.4375 -4.5 C 10.082031 -4.375 9.753906 -4.3125 9.453125 -4.3125 C 8.910156 -4.3125 8.425781 -4.503906 8 -4.890625 C 7.425781 -5.398438 7.140625 -6.066406 7.140625 -6.890625 C 7.140625 -8.046875 7.6875 -9.019531 8.78125 -9.8125 C 9.78125 -10.5625 11.226562 -11.035156 13.125 -11.234375 C 13.695312 -11.296875 14.351562 -11.351562 15.09375 -11.40625 C 15.832031 -11.457031 16.304688 -11.492188 16.515625 -11.515625 Z M 18.1875 -12.21875 C 18.1875 -12.332031 18.140625 -12.390625 18.046875 -12.390625 C 17.929688 -12.390625 17.8125 -12.335938 17.6875 -12.234375 C 17.5625 -12.128906 17.351562 -11.90625 17.0625 -11.5625 C 17.363281 -11.601562 17.597656 -11.664062 17.765625 -11.75 C 18.046875 -11.882812 18.1875 -12.039062 18.1875 -12.21875 Z M 18.1875 -12.21875 "/></g></g></g><g clip-path="url(#289c80f55b)"><path fill="#1f1a38" d="M 17.003906 0.535156 C 7.917969 0.535156 0.535156 7.917969 0.535156 17.003906 C 0.535156 26.085938 7.917969 33.46875 17.003906 33.46875 C 26.085938 33.46875 33.46875 26.085938 33.46875 17.003906 C 33.46875 7.917969 26.085938 0.535156 17.003906 0.535156 Z M 17.003906 1.25 C 25.710938 1.25 32.753906 8.292969 32.753906 17.003906 C 32.753906 25.710938 25.710938 32.753906 17.003906 32.753906 C 8.292969 32.753906 1.25 25.710938 1.25 17.003906 C 1.25 8.292969 8.292969 1.25 17.003906 1.25 Z M 17.003906 1.25 " fill-opacity="1" fill-rule="nonzero"/></g></svg>